<?xml version="1.0" encoding="utf-8"?>
<!-- Generator: Adobe Illustrator 24.1.1, SVG Export Plug-In . SVG Version: 6.00 Build 0)  -->
<svg version="1.1" id="Layer_1" xmlns="http://www.w3.org/2000/svg" xmlns:xlink="http://www.w3.org/1999/xlink" x="0px" y="0px"
	 viewBox="0 0 371 358" style="enable-background:new 0 0 371 358;" xml:space="preserve">
<style type="text/css">
	.st0{fill:url(#SVGID_1_);}
	.st1{fill:url(#SVGID_2_);}
	.st2{fill:url(#SVGID_3_);}
	.st3{fill:url(#SVGID_4_);}
	.st4{fill:url(#SVGID_5_);}
	.st5{fill:url(#SVGID_6_);}
	.st6{fill:url(#SVGID_7_);}
</style>
<g>
	<linearGradient id="SVGID_1_" gradientUnits="userSpaceOnUse" x1="9.5" y1="179" x2="358.5" y2="179">
		<stop  offset="0" style="stop-color:#662D91"/>
		<stop  offset="0.9966" style="stop-color:#662DE1"/>
	</linearGradient>
	<path class="st0" d="M184,353.5C87.8,353.5,9.5,275.2,9.5,179S87.8,4.5,184,4.5S358.5,82.8,358.5,179S280.2,353.5,184,353.5z
		 M184,13.5C92.7,13.5,18.5,87.7,18.5,179S92.7,344.5,184,344.5S349.5,270.3,349.5,179S275.3,13.5,184,13.5z"/>
</g>
<g>
	<g>
		<linearGradient id="SVGID_2_" gradientUnits="userSpaceOnUse" x1="110.7924" y1="187.5372" x2="118.2432" y2="187.5372">
			<stop  offset="0" style="stop-color:#662D91"/>
			<stop  offset="0.9966" style="stop-color:#662DE1"/>
		</linearGradient>
		<path class="st1" d="M118.2,219.3h-7.5v-63.6h7.5V219.3z"/>
		<linearGradient id="SVGID_3_" gradientUnits="userSpaceOnUse" x1="104.999" y1="192.0612" x2="182.8609" y2="192.0612">
			<stop  offset="0" style="stop-color:#662D91"/>
			<stop  offset="0.9966" style="stop-color:#662DE1"/>
		</linearGradient>
		<path class="st2" d="M159.1,206.8c1-0.3,1.9-0.7,2.9-1.1c1-0.4,1.8-1,2.6-1.6c0.8-0.6,1.4-1.4,1.8-2.2c0.5-0.9,0.7-1.9,0.7-3
			c0-2.5-1-4.4-3.1-5.7c-2-1.4-4.9-2.1-8.7-2.1c-1.5,0-3.1,0.2-4.6,0.5c-1.6,0.3-3,0.9-4.3,1.7c-1.3,0.8-2.4,1.9-3.2,3.3
			c-0.8,1.4-1.2,3.2-1.2,5.3c0,2.2,0.4,4.2,1.3,6.1c0.9,1.9,2,3.6,3.3,5.2c1.4,1.6,2.9,3,4.6,4.3c1.7,1.3,3.4,2.4,5.1,3.4
			c1.7,1,3.3,1.8,4.8,2.5c1.5,0.7,2.8,1.2,3.8,1.6l-2.9,6.1c-2.1-0.9-4.2-1.9-6.3-2.9c-2.1-1-4.2-2.2-6.2-3.5
			c-2-1.3-3.9-2.6-5.7-4.1c-1.8-1.5-3.3-3.2-4.6-5c-1.3-1.8-2.4-3.8-3.1-6c-0.8-2.2-1.1-4.6-1.1-7.1c0-2.5,0.3-4.7,1-6.6
			c0.7-1.9,1.6-3.5,2.8-4.9c-1.6-1.9-2.8-3.7-3.6-5.6c-0.8-1.9-1.2-3.9-1.2-6.2c0-1.3,0.2-2.5,0.5-3.6c0.3-1.1,0.9-2.1,1.7-2.9
			c0.8-0.8,1.9-1.5,3.4-2c1.4-0.5,3.3-0.8,5.6-0.8h20.1v-9.8H105v-6.5h77.9v6.5h-10.3v16.3H147c-1.2,0-2.1,0.1-2.9,0.3
			c-0.8,0.2-1.4,0.5-1.9,0.9c-0.5,0.4-0.8,0.9-1,1.4c-0.2,0.6-0.3,1.2-0.3,2c0,1,0.2,2,0.5,3c0.4,1,1,2.1,2,3.3
			c1.7-0.9,3.6-1.5,5.7-2c2.1-0.4,4.2-0.6,6.5-0.6c2.6,0,5,0.3,7.3,0.9c2.3,0.6,4.2,1.5,5.9,2.7c1.7,1.2,3,2.7,3.9,4.6
			c1,1.8,1.4,4,1.4,6.5c0,2.4-0.4,4.4-1.2,6.1c-0.8,1.7-1.8,3-3.1,4.2c-1.2,1.1-2.6,2-4,2.7c-1.4,0.7-2.8,1.3-4,1.7L159.1,206.8z"/>
		<linearGradient id="SVGID_4_" gradientUnits="userSpaceOnUse" x1="179.7564" y1="189.8877" x2="239.4069" y2="189.8877">
			<stop  offset="0" style="stop-color:#662D91"/>
			<stop  offset="0.9966" style="stop-color:#662DE1"/>
		</linearGradient>
		<path class="st3" d="M239.4,159.7h-15v19.5h-14.9c-4.6,0-8.1,1.1-10.5,3.4c-2.4,2.3-3.5,5.6-3.5,9.9c0,2.4,0.4,4.6,1.2,6.4
			c0.8,1.9,1.9,3.4,3.2,4.7c1.4,1.3,3,2.2,4.9,2.9c1.9,0.7,3.9,1,6.2,1c2.3,0,4.2-0.4,5.6-1.1c-0.1-0.7-0.2-1.4-0.3-2
			c-0.1-0.6-0.1-1.1-0.1-1.7c0-1.2,0.2-2.5,0.5-3.8c0.3-1.3,0.8-2.5,1.4-3.6c0.6-1.1,1.4-2,2.4-2.6c1-0.7,2.2-1,3.6-1
			c0.9,0,1.7,0.1,2.4,0.4c0.8,0.3,1.4,0.7,2,1.4c0.6,0.6,1,1.4,1.4,2.3c0.3,0.9,0.5,2,0.5,3.2c0,1.2-0.2,2.3-0.5,3.3
			c-0.3,1-0.7,2-1.3,2.8c-0.5,0.9-1.1,1.7-1.8,2.4c-0.7,0.8-1.3,1.4-1.9,2.1c0.6,1.4,1.3,2.7,2.1,3.8c0.7,1.1,1.5,2.1,2.3,3
			s1.6,1.7,2.4,2.4c0.8,0.7,1.6,1.4,2.4,2l-5.5,5.7c-1.6-1.4-2.9-2.8-4-4.1c-1.1-1.4-2-2.7-2.8-3.9c-0.8-1.2-1.4-2.3-1.8-3.3
			c-0.5-1-0.9-1.8-1.2-2.4c-2,0.8-4.6,1.2-7.5,1.2c-3.8,0-7.2-0.6-10.1-1.9c-2.9-1.3-5.3-2.9-7.2-5.1c-1.9-2.1-3.3-4.5-4.3-7.3
			c-0.9-2.7-1.4-5.5-1.4-8.5c0-3,0.5-5.7,1.5-8c1-2.3,2.3-4.3,4.1-5.9c1.7-1.6,3.8-2.8,6.2-3.6s5-1.2,7.9-1.2h9.1v-13h-37.3v-6.5
			h59.7V159.7z"/>
		<linearGradient id="SVGID_5_" gradientUnits="userSpaceOnUse" x1="215.9015" y1="173.2122" x2="263.001" y2="173.2122">
			<stop  offset="0" style="stop-color:#662D91"/>
			<stop  offset="0.9966" style="stop-color:#662DE1"/>
		</linearGradient>
		<path class="st4" d="M263,159.7h-9.3v59.6h-7.3v-59.6h-10.1v-6.5h10.8c-0.5-3-1.2-5.6-2-7.7c-0.8-2.1-1.7-3.9-2.7-5.4
			c-1-1.4-2-2.6-3.1-3.4c-1.1-0.8-2.1-1.4-3.1-1.9c-1-0.4-1.9-0.7-2.8-0.8c-0.9-0.1-1.6-0.2-2.2-0.2c-1.8,0-3.3,0.3-4.4,0.9
			c-1.1,0.6-2,1.3-2.6,2.1c-0.6,0.8-1,1.6-1.2,2.5c-0.2,0.9-0.3,1.6-0.3,2.2c0,0.2,0,0.7,0.1,1.4s0.3,1.6,0.7,2.7
			c0.4,1.1,1,2.3,1.8,3.7c0.8,1.4,2,2.8,3.5,4.3h-7.5c-1.9-2.1-3.3-4.3-4.2-6.6c-0.9-2.3-1.4-4.5-1.4-6.7c0-1.8,0.3-3.5,1-5.1
			c0.7-1.6,1.6-3,2.9-4.2c1.3-1.2,2.9-2.2,4.9-2.9c2-0.7,4.2-1.1,6.8-1.1c3.5,0,6.6,0.7,9.2,2.1c2.6,1.4,4.7,3.2,6.5,5.6
			c1.8,2.4,3.1,5.1,4.2,8.3c1,3.2,1.7,6.6,2.2,10.1h9.5V159.7z"/>
	</g>
	<g>
		<linearGradient id="SVGID_6_" gradientUnits="userSpaceOnUse" x1="111.0098" y1="143.8311" x2="173.3927" y2="143.8311">
			<stop  offset="0" style="stop-color:#662D91"/>
			<stop  offset="0.9966" style="stop-color:#662DE1"/>
		</linearGradient>
		<path class="st5" d="M112.3,158.8c-1.6-6.5-3.1-18.4,4-25.4c10.7-10.5,32.4-0.9,42.4,5.7c5.6,3.7,10.5,8.3,14.6,13.8l-5.5,4.1
			c-3.6-4.9-8-8.9-12.9-12.2c-10.1-6.6-27.3-13-33.9-6.5c-5,4.9-2.9,15.7-2.1,18.9L112.3,158.8z"/>
	</g>
	<g>
		<g>
			<linearGradient id="SVGID_7_" gradientUnits="userSpaceOnUse" x1="176.4323" y1="146.329" x2="183.068" y2="146.329">
				<stop  offset="0" style="stop-color:#662D91"/>
				<stop  offset="0.9966" style="stop-color:#662DE1"/>
			</linearGradient>
			<path class="st6" d="M179.8,149.8c4.4,0,4.4-6.9,0-6.9C175.3,142.9,175.3,149.8,179.8,149.8L179.8,149.8z"/>
		</g>
	</g>
</g>
</svg>
